<?xml version="1.0" encoding="UTF-8"?>
<svg width="70px" height="78px" viewBox="0 0 70 78" version="1.1" xmlns="http://www.w3.org/2000/svg" xmlns:xlink="http://www.w3.org/1999/xlink">
    <!-- Generator: Sketch 58 (84663) - https://sketch.com -->
    <title>check icon</title>
    <desc>Created with Sketch.</desc>
    <g id="Page-1" stroke="none" stroke-width="1" fill="none" fill-rule="evenodd">
        <g id="check-icon" transform="translate(-5.000000, -1.000000)">
            <path d="M46,3.46410162 L68.6410162,16.5358984 C72.3538291,18.6794919 74.6410162,22.6410162 74.6410162,26.9282032 L74.6410162,53.0717968 C74.6410162,57.3589838 72.3538291,61.3205081 68.6410162,63.4641016 L46,76.5358984 C42.2871871,78.6794919 37.7128129,78.6794919 34,76.5358984 L11.3589838,63.4641016 C7.64617093,61.3205081 5.35898385,57.3589838 5.35898385,53.0717968 L5.35898385,26.9282032 C5.35898385,22.6410162 7.64617093,18.6794919 11.3589838,16.5358984 L34,3.46410162 C37.7128129,1.32050808 42.2871871,1.32050808 46,3.46410162 Z" id="Polygon" fill="#F6BB05"></path>
            <g id="tick-mark" transform="translate(20.000000, 24.000000)" fill="#EB6D2F" fill-rule="nonzero">
                <path d="M38.512933,0.910439359 C36.839145,-0.458425648 34.4309887,-0.260666369 33.1329686,1.34844526 L16.0207594,22.5897037 L7.08893484,10.9039457 C5.75657965,9.16225426 3.27361509,8.83645357 1.54362495,10.1763499 C-0.187899712,11.5170188 -0.511397702,14.0176887 0.820957492,15.7617942 L12.8095647,31.4466736 C14.1419199,33.1883651 16.6256517,33.5149382 18.3564091,32.1742694 C18.8498563,31.7919798 19.2147865,31.3092657 19.4735466,30.7818432 L39.1965659,6.30198688 C40.4939146,4.69055776 40.1874882,2.27775937 38.512933,0.910439359 Z" id="Path"></path>
            </g>
        </g>
    </g>
</svg>